<mxfile host="app.diagrams.net" modified="2024-01-27T03:02:53.478Z" agent="Mozilla/5.0 (Windows NT 10.0; Win64; x64) AppleWebKit/537.36 (KHTML, like Gecko) Chrome/120.0.0.0 Safari/537.36" etag="oKqVRKTkclJ-XZz5Okw6" version="22.1.21" type="github">
  <diagram name="第 1 页" id="t5EFKjGEsA6wdtvT4ajn">
    <mxGraphModel dx="1804" dy="573" grid="1" gridSize="10" guides="1" tooltips="1" connect="1" arrows="1" fold="1" page="1" pageScale="1" pageWidth="827" pageHeight="1169" math="0" shadow="0">
      <root>
        <mxCell id="0" />
        <mxCell id="1" parent="0" />
        <mxCell id="-G8xLAvUSs20GB0HylZQ-1" value="&lt;b&gt;&lt;font style=&quot;font-size: 17px;&quot; face=&quot;Courier New&quot;&gt;class 文件&lt;/font&gt;&lt;/b&gt;" style="rounded=0;whiteSpace=wrap;html=1;fillColor=#d5e8d4;strokeColor=#82b366;" vertex="1" parent="1">
          <mxGeometry x="-30" y="300" width="120" height="60" as="geometry" />
        </mxCell>
        <mxCell id="-G8xLAvUSs20GB0HylZQ-2" value="" style="rounded=0;whiteSpace=wrap;html=1;fillColor=#e1d5e7;strokeColor=#9673a6;" vertex="1" parent="1">
          <mxGeometry x="260" y="100" width="550" height="270" as="geometry" />
        </mxCell>
        <mxCell id="-G8xLAvUSs20GB0HylZQ-3" value="&lt;b style=&quot;font-size: 18px;&quot;&gt;&lt;font style=&quot;font-size: 18px;&quot; face=&quot;Courier New&quot;&gt;class &lt;br&gt;字节码&lt;/font&gt;&lt;/b&gt;" style="ellipse;whiteSpace=wrap;html=1;fillColor=#dae8fc;strokeColor=#6c8ebf;" vertex="1" parent="1">
          <mxGeometry x="290" y="250" width="150" height="80" as="geometry" />
        </mxCell>
        <mxCell id="-G8xLAvUSs20GB0HylZQ-4" value="" style="rounded=0;whiteSpace=wrap;html=1;fillColor=#d5e8d4;strokeColor=#82b366;" vertex="1" parent="1">
          <mxGeometry x="430" y="120" width="360" height="100" as="geometry" />
        </mxCell>
        <mxCell id="-G8xLAvUSs20GB0HylZQ-18" style="rounded=0;orthogonalLoop=1;jettySize=auto;html=1;entryX=1;entryY=0;entryDx=0;entryDy=0;exitX=0.5;exitY=1;exitDx=0;exitDy=0;" edge="1" parent="1" source="-G8xLAvUSs20GB0HylZQ-5" target="-G8xLAvUSs20GB0HylZQ-3">
          <mxGeometry relative="1" as="geometry" />
        </mxCell>
        <mxCell id="-G8xLAvUSs20GB0HylZQ-5" value="&lt;b&gt;&lt;font style=&quot;font-size: 17px;&quot; face=&quot;Courier New&quot;&gt;转换器 1&lt;/font&gt;&lt;/b&gt;" style="rounded=0;whiteSpace=wrap;html=1;fillColor=#fff2cc;strokeColor=#d6b656;" vertex="1" parent="1">
          <mxGeometry x="470" y="160" width="90" height="40" as="geometry" />
        </mxCell>
        <mxCell id="-G8xLAvUSs20GB0HylZQ-19" style="rounded=0;orthogonalLoop=1;jettySize=auto;html=1;entryX=1;entryY=0;entryDx=0;entryDy=0;exitX=0.5;exitY=1;exitDx=0;exitDy=0;" edge="1" parent="1" source="-G8xLAvUSs20GB0HylZQ-6" target="-G8xLAvUSs20GB0HylZQ-3">
          <mxGeometry relative="1" as="geometry" />
        </mxCell>
        <mxCell id="-G8xLAvUSs20GB0HylZQ-6" value="&lt;font face=&quot;Courier New&quot;&gt;&lt;span style=&quot;font-size: 17px;&quot;&gt;&lt;b&gt;...&lt;/b&gt;&lt;/span&gt;&lt;/font&gt;" style="rounded=0;whiteSpace=wrap;html=1;fillColor=#fff2cc;strokeColor=#d6b656;" vertex="1" parent="1">
          <mxGeometry x="580" y="160" width="70" height="40" as="geometry" />
        </mxCell>
        <mxCell id="-G8xLAvUSs20GB0HylZQ-20" style="rounded=0;orthogonalLoop=1;jettySize=auto;html=1;entryX=1;entryY=0;entryDx=0;entryDy=0;exitX=0.5;exitY=1;exitDx=0;exitDy=0;" edge="1" parent="1" source="-G8xLAvUSs20GB0HylZQ-7" target="-G8xLAvUSs20GB0HylZQ-3">
          <mxGeometry relative="1" as="geometry" />
        </mxCell>
        <mxCell id="-G8xLAvUSs20GB0HylZQ-7" value="&lt;b&gt;&lt;font style=&quot;font-size: 17px;&quot; face=&quot;Courier New&quot;&gt;转换器 n&lt;/font&gt;&lt;/b&gt;" style="rounded=0;whiteSpace=wrap;html=1;fillColor=#fff2cc;strokeColor=#d6b656;" vertex="1" parent="1">
          <mxGeometry x="670" y="160" width="90" height="40" as="geometry" />
        </mxCell>
        <mxCell id="-G8xLAvUSs20GB0HylZQ-8" value="&lt;b&gt;&lt;font style=&quot;font-size: 18px;&quot; face=&quot;Courier New&quot;&gt;Instrument&lt;/font&gt;&lt;/b&gt;" style="text;html=1;align=center;verticalAlign=middle;resizable=0;points=[];autosize=1;strokeColor=none;fillColor=none;" vertex="1" parent="1">
          <mxGeometry x="550" y="120" width="130" height="40" as="geometry" />
        </mxCell>
        <mxCell id="-G8xLAvUSs20GB0HylZQ-9" value="" style="rounded=0;whiteSpace=wrap;html=1;fillColor=#d5e8d4;strokeColor=#82b366;" vertex="1" parent="1">
          <mxGeometry x="550" y="240" width="213" height="110" as="geometry" />
        </mxCell>
        <mxCell id="-G8xLAvUSs20GB0HylZQ-10" value="&lt;b style=&quot;font-size: 18px;&quot;&gt;&lt;font style=&quot;font-size: 18px;&quot; face=&quot;Courier New&quot;&gt;class&#39;&lt;br&gt;字节码&lt;/font&gt;&lt;/b&gt;" style="ellipse;whiteSpace=wrap;html=1;fillColor=#dae8fc;strokeColor=#6c8ebf;" vertex="1" parent="1">
          <mxGeometry x="595.25" y="280" width="112.5" height="60" as="geometry" />
        </mxCell>
        <mxCell id="-G8xLAvUSs20GB0HylZQ-11" value="&lt;b&gt;&lt;font style=&quot;font-size: 18px;&quot; face=&quot;Courier New&quot;&gt;ClassLoader&lt;/font&gt;&lt;/b&gt;" style="text;html=1;align=center;verticalAlign=middle;resizable=0;points=[];autosize=1;strokeColor=none;fillColor=none;" vertex="1" parent="1">
          <mxGeometry x="581.5" y="240" width="140" height="40" as="geometry" />
        </mxCell>
        <mxCell id="-G8xLAvUSs20GB0HylZQ-12" style="edgeStyle=orthogonalEdgeStyle;rounded=0;orthogonalLoop=1;jettySize=auto;html=1;" edge="1" parent="1" source="-G8xLAvUSs20GB0HylZQ-1" target="-G8xLAvUSs20GB0HylZQ-3">
          <mxGeometry relative="1" as="geometry" />
        </mxCell>
        <mxCell id="-G8xLAvUSs20GB0HylZQ-16" value="&lt;b&gt;&lt;font style=&quot;font-size: 18px;&quot; face=&quot;Courier New&quot;&gt;1.读取类文件&lt;/font&gt;&lt;/b&gt;" style="text;html=1;align=center;verticalAlign=middle;resizable=0;points=[];autosize=1;strokeColor=none;fillColor=none;" vertex="1" parent="1">
          <mxGeometry x="-40" y="250" width="140" height="40" as="geometry" />
        </mxCell>
        <mxCell id="-G8xLAvUSs20GB0HylZQ-17" value="&lt;b&gt;&lt;font style=&quot;font-size: 18px;&quot; face=&quot;Courier New&quot;&gt;2.字节码转换&lt;/font&gt;&lt;/b&gt;" style="text;html=1;align=center;verticalAlign=middle;resizable=0;points=[];autosize=1;strokeColor=none;fillColor=none;" vertex="1" parent="1">
          <mxGeometry x="344" y="200" width="140" height="40" as="geometry" />
        </mxCell>
        <mxCell id="-G8xLAvUSs20GB0HylZQ-21" value="&lt;b&gt;&lt;font style=&quot;font-size: 18px;&quot; face=&quot;Courier New&quot;&gt;3.生成最终字节码&lt;/font&gt;&lt;/b&gt;" style="text;html=1;align=center;verticalAlign=middle;resizable=0;points=[];autosize=1;strokeColor=none;fillColor=none;" vertex="1" parent="1">
          <mxGeometry x="425.25" y="310" width="170" height="40" as="geometry" />
        </mxCell>
        <mxCell id="-G8xLAvUSs20GB0HylZQ-22" style="rounded=0;orthogonalLoop=1;jettySize=auto;html=1;" edge="1" parent="1" source="-G8xLAvUSs20GB0HylZQ-3" target="-G8xLAvUSs20GB0HylZQ-10">
          <mxGeometry relative="1" as="geometry" />
        </mxCell>
      </root>
    </mxGraphModel>
  </diagram>
</mxfile>
